<mxfile host="app.diagrams.net" agent="Mozilla/5.0 (Windows NT 10.0; Win64; x64) AppleWebKit/537.36 (KHTML, like Gecko) Chrome/140.0.0.0 Safari/537.36" version="28.2.5" pages="4">
  <diagram name="1.1" id="A6YyC0zHlaroR13iZWX0">
    <mxGraphModel dx="1678" dy="836" grid="1" gridSize="10" guides="1" tooltips="1" connect="1" arrows="1" fold="1" page="1" pageScale="1" pageWidth="1800" pageHeight="1500" math="0" shadow="0">
      <root>
        <mxCell id="0" />
        <mxCell id="1" parent="0" />
        <mxCell id="rtD2j8Ox3qHUKRXB66nk-1" value="" style="rounded=1;whiteSpace=wrap;html=1;fillColor=#5959FF;strokeColor=#6c8ebf;gradientColor=none;" vertex="1" parent="1">
          <mxGeometry x="439" y="356" width="240" height="90" as="geometry" />
        </mxCell>
        <mxCell id="rtD2j8Ox3qHUKRXB66nk-2" value="" style="rounded=1;whiteSpace=wrap;html=1;fillColor=#dae8fc;strokeColor=#6c8ebf;" vertex="1" parent="1">
          <mxGeometry x="180" y="376" width="120" height="50" as="geometry" />
        </mxCell>
        <mxCell id="rtD2j8Ox3qHUKRXB66nk-3" value="" style="rounded=1;whiteSpace=wrap;html=1;fillColor=#f5f5f5;fontColor=#333333;strokeColor=#666666;" vertex="1" parent="1">
          <mxGeometry x="280" y="480" width="120" height="40" as="geometry" />
        </mxCell>
        <mxCell id="rtD2j8Ox3qHUKRXB66nk-5" value="" style="endArrow=classic;html=1;rounded=0;exitX=0;exitY=0.5;exitDx=0;exitDy=0;entryX=1;entryY=0.5;entryDx=0;entryDy=0;" edge="1" parent="1" source="rtD2j8Ox3qHUKRXB66nk-1" target="rtD2j8Ox3qHUKRXB66nk-2">
          <mxGeometry width="50" height="50" relative="1" as="geometry">
            <mxPoint x="700" y="520" as="sourcePoint" />
            <mxPoint x="750" y="470" as="targetPoint" />
          </mxGeometry>
        </mxCell>
        <mxCell id="rtD2j8Ox3qHUKRXB66nk-7" value="" style="endArrow=classic;html=1;rounded=0;exitX=0.75;exitY=1;exitDx=0;exitDy=0;entryX=0.5;entryY=0;entryDx=0;entryDy=0;" edge="1" parent="1" source="rtD2j8Ox3qHUKRXB66nk-2" target="rtD2j8Ox3qHUKRXB66nk-3">
          <mxGeometry width="50" height="50" relative="1" as="geometry">
            <mxPoint x="700" y="520" as="sourcePoint" />
            <mxPoint x="750" y="470" as="targetPoint" />
          </mxGeometry>
        </mxCell>
        <UserObject label="https://www.morgan.edu/academic-affairs/resources/instructional-technology/teaching-with-technology/concept-maps" link="https://www.morgan.edu/academic-affairs/resources/instructional-technology/teaching-with-technology/concept-maps" id="rtD2j8Ox3qHUKRXB66nk-8">
          <mxCell style="text;whiteSpace=wrap;" vertex="1" parent="1">
            <mxGeometry x="40" y="110" width="350" height="50" as="geometry" />
          </mxCell>
        </UserObject>
        <mxCell id="rtD2j8Ox3qHUKRXB66nk-9" value="" style="rounded=1;whiteSpace=wrap;html=1;fillColor=#f5f5f5;fontColor=#333333;strokeColor=#666666;" vertex="1" parent="1">
          <mxGeometry x="80" y="480" width="120" height="40" as="geometry" />
        </mxCell>
        <mxCell id="rtD2j8Ox3qHUKRXB66nk-10" value="" style="endArrow=classic;html=1;rounded=0;exitX=0.25;exitY=1;exitDx=0;exitDy=0;entryX=0.5;entryY=0;entryDx=0;entryDy=0;" edge="1" parent="1" target="rtD2j8Ox3qHUKRXB66nk-9" source="rtD2j8Ox3qHUKRXB66nk-2">
          <mxGeometry width="50" height="50" relative="1" as="geometry">
            <mxPoint x="550" y="225" as="sourcePoint" />
            <mxPoint x="730" y="410" as="targetPoint" />
          </mxGeometry>
        </mxCell>
        <mxCell id="rtD2j8Ox3qHUKRXB66nk-11" value="" style="rounded=1;whiteSpace=wrap;html=1;fillColor=#dae8fc;strokeColor=#6c8ebf;" vertex="1" parent="1">
          <mxGeometry x="499" y="540" width="120" height="50" as="geometry" />
        </mxCell>
        <mxCell id="rtD2j8Ox3qHUKRXB66nk-12" value="" style="endArrow=classic;html=1;rounded=0;exitX=0.5;exitY=1;exitDx=0;exitDy=0;entryX=0.5;entryY=0;entryDx=0;entryDy=0;" edge="1" parent="1" source="rtD2j8Ox3qHUKRXB66nk-1" target="rtD2j8Ox3qHUKRXB66nk-11">
          <mxGeometry width="50" height="50" relative="1" as="geometry">
            <mxPoint x="580" y="420" as="sourcePoint" />
            <mxPoint x="450" y="420" as="targetPoint" />
          </mxGeometry>
        </mxCell>
        <mxCell id="rtD2j8Ox3qHUKRXB66nk-13" value="" style="rounded=1;whiteSpace=wrap;html=1;fillColor=#f5f5f5;fontColor=#333333;strokeColor=#666666;" vertex="1" parent="1">
          <mxGeometry x="641" y="640" width="120" height="40" as="geometry" />
        </mxCell>
        <mxCell id="rtD2j8Ox3qHUKRXB66nk-14" value="" style="endArrow=classic;html=1;rounded=0;entryX=0.5;entryY=0;entryDx=0;entryDy=0;" edge="1" parent="1" target="rtD2j8Ox3qHUKRXB66nk-13" source="rtD2j8Ox3qHUKRXB66nk-11">
          <mxGeometry width="50" height="50" relative="1" as="geometry">
            <mxPoint x="589" y="590" as="sourcePoint" />
            <mxPoint x="1069" y="634" as="targetPoint" />
          </mxGeometry>
        </mxCell>
        <mxCell id="rtD2j8Ox3qHUKRXB66nk-15" value="" style="rounded=1;whiteSpace=wrap;html=1;fillColor=#f5f5f5;fontColor=#333333;strokeColor=#666666;" vertex="1" parent="1">
          <mxGeometry x="361" y="641" width="120" height="40" as="geometry" />
        </mxCell>
        <mxCell id="rtD2j8Ox3qHUKRXB66nk-16" value="" style="endArrow=classic;html=1;rounded=0;entryX=0.5;entryY=0;entryDx=0;entryDy=0;" edge="1" parent="1" target="rtD2j8Ox3qHUKRXB66nk-15" source="rtD2j8Ox3qHUKRXB66nk-11">
          <mxGeometry width="50" height="50" relative="1" as="geometry">
            <mxPoint x="529" y="590" as="sourcePoint" />
            <mxPoint x="1049" y="574" as="targetPoint" />
          </mxGeometry>
        </mxCell>
        <mxCell id="rtD2j8Ox3qHUKRXB66nk-17" value="" style="endArrow=classic;startArrow=classic;html=1;rounded=0;exitX=1;exitY=0.5;exitDx=0;exitDy=0;entryX=0;entryY=0.5;entryDx=0;entryDy=0;" edge="1" parent="1" source="rtD2j8Ox3qHUKRXB66nk-15" target="rtD2j8Ox3qHUKRXB66nk-13">
          <mxGeometry width="50" height="50" relative="1" as="geometry">
            <mxPoint x="540" y="750" as="sourcePoint" />
            <mxPoint x="590" y="700" as="targetPoint" />
          </mxGeometry>
        </mxCell>
        <mxCell id="rtD2j8Ox3qHUKRXB66nk-18" value="" style="rounded=1;whiteSpace=wrap;html=1;fillColor=#dae8fc;strokeColor=#6c8ebf;" vertex="1" parent="1">
          <mxGeometry x="481" y="220" width="120" height="50" as="geometry" />
        </mxCell>
        <mxCell id="rtD2j8Ox3qHUKRXB66nk-19" value="" style="rounded=1;whiteSpace=wrap;html=1;fillColor=#dae8fc;strokeColor=#6c8ebf;" vertex="1" parent="1">
          <mxGeometry x="840" y="376" width="120" height="50" as="geometry" />
        </mxCell>
        <mxCell id="rtD2j8Ox3qHUKRXB66nk-20" value="" style="rounded=1;whiteSpace=wrap;html=1;fillColor=#f5f5f5;fontColor=#333333;strokeColor=#666666;" vertex="1" parent="1">
          <mxGeometry x="910" y="601" width="80" height="40" as="geometry" />
        </mxCell>
        <mxCell id="rtD2j8Ox3qHUKRXB66nk-21" value="" style="rounded=1;whiteSpace=wrap;html=1;fillColor=#f5f5f5;fontColor=#333333;strokeColor=#666666;" vertex="1" parent="1">
          <mxGeometry x="870" y="491" width="120" height="40" as="geometry" />
        </mxCell>
        <mxCell id="rtD2j8Ox3qHUKRXB66nk-22" value="" style="rounded=1;whiteSpace=wrap;html=1;fillColor=#f5f5f5;fontColor=#333333;strokeColor=#666666;" vertex="1" parent="1">
          <mxGeometry x="1120" y="330" width="80" height="40" as="geometry" />
        </mxCell>
        <mxCell id="rtD2j8Ox3qHUKRXB66nk-23" value="" style="rounded=1;whiteSpace=wrap;html=1;fillColor=#f5f5f5;fontColor=#333333;strokeColor=#666666;" vertex="1" parent="1">
          <mxGeometry x="790" y="190" width="150" height="40" as="geometry" />
        </mxCell>
        <mxCell id="rtD2j8Ox3qHUKRXB66nk-24" value="" style="endArrow=classic;html=1;rounded=0;exitX=0.5;exitY=0;exitDx=0;exitDy=0;entryX=0.5;entryY=1;entryDx=0;entryDy=0;" edge="1" parent="1" source="rtD2j8Ox3qHUKRXB66nk-1" target="rtD2j8Ox3qHUKRXB66nk-18">
          <mxGeometry width="50" height="50" relative="1" as="geometry">
            <mxPoint x="620" y="330" as="sourcePoint" />
            <mxPoint x="670" y="280" as="targetPoint" />
          </mxGeometry>
        </mxCell>
        <mxCell id="rtD2j8Ox3qHUKRXB66nk-25" value="" style="endArrow=classic;html=1;rounded=0;exitX=1;exitY=0.5;exitDx=0;exitDy=0;entryX=0;entryY=0.5;entryDx=0;entryDy=0;" edge="1" parent="1" source="rtD2j8Ox3qHUKRXB66nk-18" target="rtD2j8Ox3qHUKRXB66nk-23">
          <mxGeometry width="50" height="50" relative="1" as="geometry">
            <mxPoint x="650" y="240" as="sourcePoint" />
            <mxPoint x="700" y="190" as="targetPoint" />
          </mxGeometry>
        </mxCell>
        <mxCell id="rtD2j8Ox3qHUKRXB66nk-26" value="" style="endArrow=classic;html=1;rounded=0;exitX=1;exitY=0.5;exitDx=0;exitDy=0;entryX=0;entryY=0.5;entryDx=0;entryDy=0;" edge="1" parent="1" source="rtD2j8Ox3qHUKRXB66nk-1" target="rtD2j8Ox3qHUKRXB66nk-19">
          <mxGeometry width="50" height="50" relative="1" as="geometry">
            <mxPoint x="680" y="490" as="sourcePoint" />
            <mxPoint x="730" y="440" as="targetPoint" />
          </mxGeometry>
        </mxCell>
        <mxCell id="rtD2j8Ox3qHUKRXB66nk-27" value="" style="endArrow=classic;html=1;rounded=0;exitX=0.5;exitY=1;exitDx=0;exitDy=0;entryX=0.5;entryY=0;entryDx=0;entryDy=0;" edge="1" parent="1" source="rtD2j8Ox3qHUKRXB66nk-19" target="rtD2j8Ox3qHUKRXB66nk-21">
          <mxGeometry width="50" height="50" relative="1" as="geometry">
            <mxPoint x="990" y="250" as="sourcePoint" />
            <mxPoint x="1040" y="200" as="targetPoint" />
          </mxGeometry>
        </mxCell>
        <mxCell id="rtD2j8Ox3qHUKRXB66nk-28" value="" style="endArrow=classic;html=1;rounded=0;exitX=1;exitY=0.5;exitDx=0;exitDy=0;entryX=0;entryY=0.5;entryDx=0;entryDy=0;" edge="1" parent="1" source="rtD2j8Ox3qHUKRXB66nk-19" target="rtD2j8Ox3qHUKRXB66nk-22">
          <mxGeometry width="50" height="50" relative="1" as="geometry">
            <mxPoint x="1010" y="430" as="sourcePoint" />
            <mxPoint x="1060" y="380" as="targetPoint" />
          </mxGeometry>
        </mxCell>
        <mxCell id="rtD2j8Ox3qHUKRXB66nk-29" value="" style="endArrow=classic;html=1;rounded=0;entryX=0.5;entryY=0;entryDx=0;entryDy=0;" edge="1" parent="1" source="rtD2j8Ox3qHUKRXB66nk-23" target="rtD2j8Ox3qHUKRXB66nk-19">
          <mxGeometry width="50" height="50" relative="1" as="geometry">
            <mxPoint x="840" y="330" as="sourcePoint" />
            <mxPoint x="890" y="280" as="targetPoint" />
          </mxGeometry>
        </mxCell>
        <mxCell id="rtD2j8Ox3qHUKRXB66nk-30" value="" style="endArrow=classic;html=1;rounded=0;exitX=0.5;exitY=1;exitDx=0;exitDy=0;" edge="1" parent="1" source="rtD2j8Ox3qHUKRXB66nk-21" target="rtD2j8Ox3qHUKRXB66nk-20">
          <mxGeometry width="50" height="50" relative="1" as="geometry">
            <mxPoint x="1110" y="590" as="sourcePoint" />
            <mxPoint x="1160" y="540" as="targetPoint" />
          </mxGeometry>
        </mxCell>
        <mxCell id="rtD2j8Ox3qHUKRXB66nk-31" value="" style="curved=1;endArrow=classic;html=1;rounded=0;exitX=1;exitY=0.5;exitDx=0;exitDy=0;entryX=0;entryY=0.5;entryDx=0;entryDy=0;startArrow=blockThin;startFill=1;" edge="1" parent="1" source="rtD2j8Ox3qHUKRXB66nk-11" target="rtD2j8Ox3qHUKRXB66nk-20">
          <mxGeometry width="50" height="50" relative="1" as="geometry">
            <mxPoint x="680" y="490" as="sourcePoint" />
            <mxPoint x="730" y="440" as="targetPoint" />
            <Array as="points">
              <mxPoint x="730" y="510" />
              <mxPoint x="840" y="580" />
            </Array>
          </mxGeometry>
        </mxCell>
      </root>
    </mxGraphModel>
  </diagram>
  <diagram id="INU5LLQGjp-nCts_BlAN" name="2.2">
    <mxGraphModel dx="2593" dy="1293" grid="1" gridSize="10" guides="1" tooltips="1" connect="1" arrows="1" fold="1" page="1" pageScale="1" pageWidth="1800" pageHeight="1500" math="0" shadow="0">
      <root>
        <mxCell id="0" />
        <mxCell id="1" parent="0" />
        <mxCell id="Pbq-i8DcPubpmf70jtMy-1" value="" style="rounded=1;whiteSpace=wrap;html=1;fillColor=#5959FF;strokeColor=#6c8ebf;gradientColor=none;" vertex="1" parent="1">
          <mxGeometry x="769" y="436" width="240" height="90" as="geometry" />
        </mxCell>
        <mxCell id="Pbq-i8DcPubpmf70jtMy-2" value="" style="rounded=1;whiteSpace=wrap;html=1;fillColor=#dae8fc;strokeColor=#6c8ebf;" vertex="1" parent="1">
          <mxGeometry x="510" y="456" width="120" height="50" as="geometry" />
        </mxCell>
        <mxCell id="Pbq-i8DcPubpmf70jtMy-3" value="" style="rounded=1;whiteSpace=wrap;html=1;fillColor=#f5f5f5;fontColor=#333333;strokeColor=#666666;" vertex="1" parent="1">
          <mxGeometry x="610" y="560" width="120" height="40" as="geometry" />
        </mxCell>
        <mxCell id="Pbq-i8DcPubpmf70jtMy-4" value="" style="endArrow=classic;html=1;rounded=0;exitX=0;exitY=0.5;exitDx=0;exitDy=0;entryX=1;entryY=0.5;entryDx=0;entryDy=0;" edge="1" parent="1" source="Pbq-i8DcPubpmf70jtMy-1" target="Pbq-i8DcPubpmf70jtMy-2">
          <mxGeometry width="50" height="50" relative="1" as="geometry">
            <mxPoint x="1030" y="600" as="sourcePoint" />
            <mxPoint x="1080" y="550" as="targetPoint" />
          </mxGeometry>
        </mxCell>
        <mxCell id="Pbq-i8DcPubpmf70jtMy-5" value="" style="endArrow=classic;html=1;rounded=0;exitX=0.75;exitY=1;exitDx=0;exitDy=0;entryX=0.5;entryY=0;entryDx=0;entryDy=0;" edge="1" parent="1" source="Pbq-i8DcPubpmf70jtMy-2" target="Pbq-i8DcPubpmf70jtMy-3">
          <mxGeometry width="50" height="50" relative="1" as="geometry">
            <mxPoint x="1030" y="600" as="sourcePoint" />
            <mxPoint x="1080" y="550" as="targetPoint" />
          </mxGeometry>
        </mxCell>
        <UserObject label="https://www.morgan.edu/academic-affairs/resources/instructional-technology/teaching-with-technology/concept-maps" link="https://www.morgan.edu/academic-affairs/resources/instructional-technology/teaching-with-technology/concept-maps" id="Pbq-i8DcPubpmf70jtMy-6">
          <mxCell style="text;whiteSpace=wrap;" vertex="1" parent="1">
            <mxGeometry x="370" y="190" width="350" height="50" as="geometry" />
          </mxCell>
        </UserObject>
        <mxCell id="Pbq-i8DcPubpmf70jtMy-7" value="" style="rounded=1;whiteSpace=wrap;html=1;fillColor=#f5f5f5;fontColor=#333333;strokeColor=#666666;" vertex="1" parent="1">
          <mxGeometry x="410" y="560" width="120" height="40" as="geometry" />
        </mxCell>
        <mxCell id="Pbq-i8DcPubpmf70jtMy-8" value="" style="endArrow=classic;html=1;rounded=0;exitX=0.25;exitY=1;exitDx=0;exitDy=0;entryX=0.5;entryY=0;entryDx=0;entryDy=0;" edge="1" parent="1" source="Pbq-i8DcPubpmf70jtMy-2" target="Pbq-i8DcPubpmf70jtMy-7">
          <mxGeometry width="50" height="50" relative="1" as="geometry">
            <mxPoint x="880" y="305" as="sourcePoint" />
            <mxPoint x="1060" y="490" as="targetPoint" />
          </mxGeometry>
        </mxCell>
        <mxCell id="Pbq-i8DcPubpmf70jtMy-9" value="" style="rounded=1;whiteSpace=wrap;html=1;fillColor=#dae8fc;strokeColor=#6c8ebf;" vertex="1" parent="1">
          <mxGeometry x="829" y="620" width="120" height="50" as="geometry" />
        </mxCell>
        <mxCell id="Pbq-i8DcPubpmf70jtMy-10" value="" style="endArrow=classic;html=1;rounded=0;exitX=0.5;exitY=1;exitDx=0;exitDy=0;entryX=0.5;entryY=0;entryDx=0;entryDy=0;" edge="1" parent="1" source="Pbq-i8DcPubpmf70jtMy-1" target="Pbq-i8DcPubpmf70jtMy-9">
          <mxGeometry width="50" height="50" relative="1" as="geometry">
            <mxPoint x="910" y="500" as="sourcePoint" />
            <mxPoint x="780" y="500" as="targetPoint" />
          </mxGeometry>
        </mxCell>
        <mxCell id="Pbq-i8DcPubpmf70jtMy-11" value="" style="rounded=1;whiteSpace=wrap;html=1;fillColor=#f5f5f5;fontColor=#333333;strokeColor=#666666;" vertex="1" parent="1">
          <mxGeometry x="971" y="720" width="120" height="40" as="geometry" />
        </mxCell>
        <mxCell id="Pbq-i8DcPubpmf70jtMy-12" value="" style="endArrow=classic;html=1;rounded=0;entryX=0.5;entryY=0;entryDx=0;entryDy=0;" edge="1" parent="1" source="Pbq-i8DcPubpmf70jtMy-9" target="Pbq-i8DcPubpmf70jtMy-11">
          <mxGeometry width="50" height="50" relative="1" as="geometry">
            <mxPoint x="919" y="670" as="sourcePoint" />
            <mxPoint x="1399" y="714" as="targetPoint" />
          </mxGeometry>
        </mxCell>
        <mxCell id="Pbq-i8DcPubpmf70jtMy-13" value="" style="rounded=1;whiteSpace=wrap;html=1;fillColor=#f5f5f5;fontColor=#333333;strokeColor=#666666;" vertex="1" parent="1">
          <mxGeometry x="691" y="721" width="120" height="40" as="geometry" />
        </mxCell>
        <mxCell id="Pbq-i8DcPubpmf70jtMy-14" value="" style="endArrow=classic;html=1;rounded=0;entryX=0.5;entryY=0;entryDx=0;entryDy=0;" edge="1" parent="1" source="Pbq-i8DcPubpmf70jtMy-9" target="Pbq-i8DcPubpmf70jtMy-13">
          <mxGeometry width="50" height="50" relative="1" as="geometry">
            <mxPoint x="859" y="670" as="sourcePoint" />
            <mxPoint x="1379" y="654" as="targetPoint" />
          </mxGeometry>
        </mxCell>
        <mxCell id="Pbq-i8DcPubpmf70jtMy-15" value="" style="endArrow=classic;startArrow=classic;html=1;rounded=0;exitX=1;exitY=0.5;exitDx=0;exitDy=0;entryX=0;entryY=0.5;entryDx=0;entryDy=0;" edge="1" parent="1" source="Pbq-i8DcPubpmf70jtMy-13" target="Pbq-i8DcPubpmf70jtMy-11">
          <mxGeometry width="50" height="50" relative="1" as="geometry">
            <mxPoint x="870" y="830" as="sourcePoint" />
            <mxPoint x="920" y="780" as="targetPoint" />
          </mxGeometry>
        </mxCell>
        <mxCell id="Pbq-i8DcPubpmf70jtMy-16" value="" style="rounded=1;whiteSpace=wrap;html=1;fillColor=#dae8fc;strokeColor=#6c8ebf;" vertex="1" parent="1">
          <mxGeometry x="811" y="300" width="120" height="50" as="geometry" />
        </mxCell>
        <mxCell id="Pbq-i8DcPubpmf70jtMy-17" value="" style="rounded=1;whiteSpace=wrap;html=1;fillColor=#dae8fc;strokeColor=#6c8ebf;" vertex="1" parent="1">
          <mxGeometry x="1170" y="456" width="120" height="50" as="geometry" />
        </mxCell>
        <mxCell id="Pbq-i8DcPubpmf70jtMy-18" value="" style="rounded=1;whiteSpace=wrap;html=1;fillColor=#f5f5f5;fontColor=#333333;strokeColor=#666666;" vertex="1" parent="1">
          <mxGeometry x="1240" y="681" width="80" height="40" as="geometry" />
        </mxCell>
        <mxCell id="Pbq-i8DcPubpmf70jtMy-19" value="" style="rounded=1;whiteSpace=wrap;html=1;fillColor=#f5f5f5;fontColor=#333333;strokeColor=#666666;" vertex="1" parent="1">
          <mxGeometry x="1200" y="571" width="120" height="40" as="geometry" />
        </mxCell>
        <mxCell id="Pbq-i8DcPubpmf70jtMy-20" value="" style="rounded=1;whiteSpace=wrap;html=1;fillColor=#f5f5f5;fontColor=#333333;strokeColor=#666666;" vertex="1" parent="1">
          <mxGeometry x="1450" y="410" width="80" height="40" as="geometry" />
        </mxCell>
        <mxCell id="Pbq-i8DcPubpmf70jtMy-21" value="" style="rounded=1;whiteSpace=wrap;html=1;fillColor=#f5f5f5;fontColor=#333333;strokeColor=#666666;" vertex="1" parent="1">
          <mxGeometry x="1120" y="270" width="150" height="40" as="geometry" />
        </mxCell>
        <mxCell id="Pbq-i8DcPubpmf70jtMy-22" value="" style="endArrow=classic;html=1;rounded=0;exitX=0.5;exitY=0;exitDx=0;exitDy=0;entryX=0.5;entryY=1;entryDx=0;entryDy=0;" edge="1" parent="1" source="Pbq-i8DcPubpmf70jtMy-1" target="Pbq-i8DcPubpmf70jtMy-16">
          <mxGeometry width="50" height="50" relative="1" as="geometry">
            <mxPoint x="950" y="410" as="sourcePoint" />
            <mxPoint x="1000" y="360" as="targetPoint" />
          </mxGeometry>
        </mxCell>
        <mxCell id="Pbq-i8DcPubpmf70jtMy-23" value="" style="endArrow=classic;html=1;rounded=0;exitX=1;exitY=0.5;exitDx=0;exitDy=0;entryX=0;entryY=0.5;entryDx=0;entryDy=0;" edge="1" parent="1" source="Pbq-i8DcPubpmf70jtMy-16" target="Pbq-i8DcPubpmf70jtMy-21">
          <mxGeometry width="50" height="50" relative="1" as="geometry">
            <mxPoint x="980" y="320" as="sourcePoint" />
            <mxPoint x="1030" y="270" as="targetPoint" />
          </mxGeometry>
        </mxCell>
        <mxCell id="Pbq-i8DcPubpmf70jtMy-24" value="" style="endArrow=classic;html=1;rounded=0;exitX=1;exitY=0.5;exitDx=0;exitDy=0;entryX=0;entryY=0.5;entryDx=0;entryDy=0;" edge="1" parent="1" source="Pbq-i8DcPubpmf70jtMy-1" target="Pbq-i8DcPubpmf70jtMy-17">
          <mxGeometry width="50" height="50" relative="1" as="geometry">
            <mxPoint x="1010" y="570" as="sourcePoint" />
            <mxPoint x="1060" y="520" as="targetPoint" />
          </mxGeometry>
        </mxCell>
        <mxCell id="Pbq-i8DcPubpmf70jtMy-25" value="" style="endArrow=classic;html=1;rounded=0;exitX=0.5;exitY=1;exitDx=0;exitDy=0;entryX=0.5;entryY=0;entryDx=0;entryDy=0;" edge="1" parent="1" source="Pbq-i8DcPubpmf70jtMy-17" target="Pbq-i8DcPubpmf70jtMy-19">
          <mxGeometry width="50" height="50" relative="1" as="geometry">
            <mxPoint x="1320" y="330" as="sourcePoint" />
            <mxPoint x="1370" y="280" as="targetPoint" />
          </mxGeometry>
        </mxCell>
        <mxCell id="Pbq-i8DcPubpmf70jtMy-26" value="" style="endArrow=classic;html=1;rounded=0;exitX=1;exitY=0.5;exitDx=0;exitDy=0;entryX=0;entryY=0.5;entryDx=0;entryDy=0;" edge="1" parent="1" source="Pbq-i8DcPubpmf70jtMy-17" target="Pbq-i8DcPubpmf70jtMy-20">
          <mxGeometry width="50" height="50" relative="1" as="geometry">
            <mxPoint x="1340" y="510" as="sourcePoint" />
            <mxPoint x="1390" y="460" as="targetPoint" />
          </mxGeometry>
        </mxCell>
        <mxCell id="Pbq-i8DcPubpmf70jtMy-27" value="" style="endArrow=classic;html=1;rounded=0;entryX=0.5;entryY=0;entryDx=0;entryDy=0;" edge="1" parent="1" source="Pbq-i8DcPubpmf70jtMy-21" target="Pbq-i8DcPubpmf70jtMy-17">
          <mxGeometry width="50" height="50" relative="1" as="geometry">
            <mxPoint x="1170" y="410" as="sourcePoint" />
            <mxPoint x="1220" y="360" as="targetPoint" />
          </mxGeometry>
        </mxCell>
        <mxCell id="Pbq-i8DcPubpmf70jtMy-28" value="" style="endArrow=classic;html=1;rounded=0;exitX=0.5;exitY=1;exitDx=0;exitDy=0;" edge="1" parent="1" source="Pbq-i8DcPubpmf70jtMy-19" target="Pbq-i8DcPubpmf70jtMy-18">
          <mxGeometry width="50" height="50" relative="1" as="geometry">
            <mxPoint x="1440" y="670" as="sourcePoint" />
            <mxPoint x="1490" y="620" as="targetPoint" />
          </mxGeometry>
        </mxCell>
        <mxCell id="Pbq-i8DcPubpmf70jtMy-29" value="" style="curved=1;endArrow=classic;html=1;rounded=0;exitX=1;exitY=0.5;exitDx=0;exitDy=0;entryX=0;entryY=0.5;entryDx=0;entryDy=0;startArrow=blockThin;startFill=1;" edge="1" parent="1" source="Pbq-i8DcPubpmf70jtMy-9" target="Pbq-i8DcPubpmf70jtMy-18">
          <mxGeometry width="50" height="50" relative="1" as="geometry">
            <mxPoint x="1010" y="570" as="sourcePoint" />
            <mxPoint x="1060" y="520" as="targetPoint" />
            <Array as="points">
              <mxPoint x="1060" y="590" />
              <mxPoint x="1170" y="660" />
            </Array>
          </mxGeometry>
        </mxCell>
      </root>
    </mxGraphModel>
  </diagram>
  <diagram id="KX-kCpaQDR058m_KiNNv" name="3.1">
    <mxGraphModel dx="2852" dy="1422" grid="1" gridSize="10" guides="1" tooltips="1" connect="1" arrows="1" fold="1" page="1" pageScale="1" pageWidth="1800" pageHeight="1500" math="0" shadow="0">
      <root>
        <mxCell id="0" />
        <mxCell id="1" parent="0" />
        <mxCell id="yFBd9E0SfqnOR1oz_ZRW-1" value="" style="rounded=1;whiteSpace=wrap;html=1;fillColor=#5959FF;strokeColor=#6c8ebf;gradientColor=none;" vertex="1" parent="1">
          <mxGeometry x="629" y="426" width="240" height="90" as="geometry" />
        </mxCell>
        <mxCell id="yFBd9E0SfqnOR1oz_ZRW-2" value="" style="rounded=1;whiteSpace=wrap;html=1;fillColor=#dae8fc;strokeColor=#6c8ebf;" vertex="1" parent="1">
          <mxGeometry x="370" y="446" width="120" height="50" as="geometry" />
        </mxCell>
        <mxCell id="yFBd9E0SfqnOR1oz_ZRW-3" value="" style="rounded=1;whiteSpace=wrap;html=1;fillColor=#f5f5f5;fontColor=#333333;strokeColor=#666666;" vertex="1" parent="1">
          <mxGeometry x="470" y="550" width="120" height="40" as="geometry" />
        </mxCell>
        <mxCell id="yFBd9E0SfqnOR1oz_ZRW-4" value="" style="endArrow=classic;html=1;rounded=0;exitX=0;exitY=0.5;exitDx=0;exitDy=0;entryX=1;entryY=0.5;entryDx=0;entryDy=0;" edge="1" parent="1" source="yFBd9E0SfqnOR1oz_ZRW-1" target="yFBd9E0SfqnOR1oz_ZRW-2">
          <mxGeometry width="50" height="50" relative="1" as="geometry">
            <mxPoint x="890" y="590" as="sourcePoint" />
            <mxPoint x="940" y="540" as="targetPoint" />
          </mxGeometry>
        </mxCell>
        <mxCell id="yFBd9E0SfqnOR1oz_ZRW-5" value="" style="endArrow=classic;html=1;rounded=0;exitX=0.75;exitY=1;exitDx=0;exitDy=0;entryX=0.5;entryY=0;entryDx=0;entryDy=0;" edge="1" parent="1" source="yFBd9E0SfqnOR1oz_ZRW-2" target="yFBd9E0SfqnOR1oz_ZRW-3">
          <mxGeometry width="50" height="50" relative="1" as="geometry">
            <mxPoint x="890" y="590" as="sourcePoint" />
            <mxPoint x="940" y="540" as="targetPoint" />
          </mxGeometry>
        </mxCell>
        <UserObject label="https://www.morgan.edu/academic-affairs/resources/instructional-technology/teaching-with-technology/concept-maps" link="https://www.morgan.edu/academic-affairs/resources/instructional-technology/teaching-with-technology/concept-maps" id="yFBd9E0SfqnOR1oz_ZRW-6">
          <mxCell style="text;whiteSpace=wrap;" vertex="1" parent="1">
            <mxGeometry x="230" y="180" width="350" height="50" as="geometry" />
          </mxCell>
        </UserObject>
        <mxCell id="yFBd9E0SfqnOR1oz_ZRW-7" value="" style="rounded=1;whiteSpace=wrap;html=1;fillColor=#f5f5f5;fontColor=#333333;strokeColor=#666666;" vertex="1" parent="1">
          <mxGeometry x="270" y="550" width="120" height="40" as="geometry" />
        </mxCell>
        <mxCell id="yFBd9E0SfqnOR1oz_ZRW-8" value="" style="endArrow=classic;html=1;rounded=0;exitX=0.25;exitY=1;exitDx=0;exitDy=0;entryX=0.5;entryY=0;entryDx=0;entryDy=0;" edge="1" parent="1" source="yFBd9E0SfqnOR1oz_ZRW-2" target="yFBd9E0SfqnOR1oz_ZRW-7">
          <mxGeometry width="50" height="50" relative="1" as="geometry">
            <mxPoint x="740" y="295" as="sourcePoint" />
            <mxPoint x="920" y="480" as="targetPoint" />
          </mxGeometry>
        </mxCell>
        <mxCell id="yFBd9E0SfqnOR1oz_ZRW-9" value="" style="rounded=1;whiteSpace=wrap;html=1;fillColor=#dae8fc;strokeColor=#6c8ebf;" vertex="1" parent="1">
          <mxGeometry x="689" y="610" width="120" height="50" as="geometry" />
        </mxCell>
        <mxCell id="yFBd9E0SfqnOR1oz_ZRW-10" value="" style="endArrow=classic;html=1;rounded=0;exitX=0.5;exitY=1;exitDx=0;exitDy=0;entryX=0.5;entryY=0;entryDx=0;entryDy=0;" edge="1" parent="1" source="yFBd9E0SfqnOR1oz_ZRW-1" target="yFBd9E0SfqnOR1oz_ZRW-9">
          <mxGeometry width="50" height="50" relative="1" as="geometry">
            <mxPoint x="770" y="490" as="sourcePoint" />
            <mxPoint x="640" y="490" as="targetPoint" />
          </mxGeometry>
        </mxCell>
        <mxCell id="yFBd9E0SfqnOR1oz_ZRW-11" value="" style="rounded=1;whiteSpace=wrap;html=1;fillColor=#f5f5f5;fontColor=#333333;strokeColor=#666666;" vertex="1" parent="1">
          <mxGeometry x="831" y="710" width="120" height="40" as="geometry" />
        </mxCell>
        <mxCell id="yFBd9E0SfqnOR1oz_ZRW-12" value="" style="endArrow=classic;html=1;rounded=0;entryX=0.5;entryY=0;entryDx=0;entryDy=0;" edge="1" parent="1" source="yFBd9E0SfqnOR1oz_ZRW-9" target="yFBd9E0SfqnOR1oz_ZRW-11">
          <mxGeometry width="50" height="50" relative="1" as="geometry">
            <mxPoint x="779" y="660" as="sourcePoint" />
            <mxPoint x="1259" y="704" as="targetPoint" />
          </mxGeometry>
        </mxCell>
        <mxCell id="yFBd9E0SfqnOR1oz_ZRW-13" value="" style="rounded=1;whiteSpace=wrap;html=1;fillColor=#f5f5f5;fontColor=#333333;strokeColor=#666666;" vertex="1" parent="1">
          <mxGeometry x="551" y="711" width="120" height="40" as="geometry" />
        </mxCell>
        <mxCell id="yFBd9E0SfqnOR1oz_ZRW-14" value="" style="endArrow=classic;html=1;rounded=0;entryX=0.5;entryY=0;entryDx=0;entryDy=0;" edge="1" parent="1" source="yFBd9E0SfqnOR1oz_ZRW-9" target="yFBd9E0SfqnOR1oz_ZRW-13">
          <mxGeometry width="50" height="50" relative="1" as="geometry">
            <mxPoint x="719" y="660" as="sourcePoint" />
            <mxPoint x="1239" y="644" as="targetPoint" />
          </mxGeometry>
        </mxCell>
        <mxCell id="yFBd9E0SfqnOR1oz_ZRW-15" value="" style="endArrow=classic;startArrow=classic;html=1;rounded=0;exitX=1;exitY=0.5;exitDx=0;exitDy=0;entryX=0;entryY=0.5;entryDx=0;entryDy=0;" edge="1" parent="1" source="yFBd9E0SfqnOR1oz_ZRW-13" target="yFBd9E0SfqnOR1oz_ZRW-11">
          <mxGeometry width="50" height="50" relative="1" as="geometry">
            <mxPoint x="730" y="820" as="sourcePoint" />
            <mxPoint x="780" y="770" as="targetPoint" />
          </mxGeometry>
        </mxCell>
        <mxCell id="yFBd9E0SfqnOR1oz_ZRW-16" value="" style="rounded=1;whiteSpace=wrap;html=1;fillColor=#dae8fc;strokeColor=#6c8ebf;" vertex="1" parent="1">
          <mxGeometry x="671" y="290" width="120" height="50" as="geometry" />
        </mxCell>
        <mxCell id="yFBd9E0SfqnOR1oz_ZRW-17" value="" style="rounded=1;whiteSpace=wrap;html=1;fillColor=#dae8fc;strokeColor=#6c8ebf;" vertex="1" parent="1">
          <mxGeometry x="1030" y="446" width="120" height="50" as="geometry" />
        </mxCell>
        <mxCell id="yFBd9E0SfqnOR1oz_ZRW-18" value="" style="rounded=1;whiteSpace=wrap;html=1;fillColor=#f5f5f5;fontColor=#333333;strokeColor=#666666;" vertex="1" parent="1">
          <mxGeometry x="1100" y="671" width="80" height="40" as="geometry" />
        </mxCell>
        <mxCell id="yFBd9E0SfqnOR1oz_ZRW-19" value="" style="rounded=1;whiteSpace=wrap;html=1;fillColor=#f5f5f5;fontColor=#333333;strokeColor=#666666;" vertex="1" parent="1">
          <mxGeometry x="1060" y="561" width="120" height="40" as="geometry" />
        </mxCell>
        <mxCell id="yFBd9E0SfqnOR1oz_ZRW-20" value="" style="rounded=1;whiteSpace=wrap;html=1;fillColor=#f5f5f5;fontColor=#333333;strokeColor=#666666;" vertex="1" parent="1">
          <mxGeometry x="1310" y="400" width="80" height="40" as="geometry" />
        </mxCell>
        <mxCell id="yFBd9E0SfqnOR1oz_ZRW-21" value="" style="rounded=1;whiteSpace=wrap;html=1;fillColor=#f5f5f5;fontColor=#333333;strokeColor=#666666;" vertex="1" parent="1">
          <mxGeometry x="980" y="260" width="150" height="40" as="geometry" />
        </mxCell>
        <mxCell id="yFBd9E0SfqnOR1oz_ZRW-22" value="" style="endArrow=classic;html=1;rounded=0;exitX=0.5;exitY=0;exitDx=0;exitDy=0;entryX=0.5;entryY=1;entryDx=0;entryDy=0;" edge="1" parent="1" source="yFBd9E0SfqnOR1oz_ZRW-1" target="yFBd9E0SfqnOR1oz_ZRW-16">
          <mxGeometry width="50" height="50" relative="1" as="geometry">
            <mxPoint x="810" y="400" as="sourcePoint" />
            <mxPoint x="860" y="350" as="targetPoint" />
          </mxGeometry>
        </mxCell>
        <mxCell id="yFBd9E0SfqnOR1oz_ZRW-23" value="" style="endArrow=classic;html=1;rounded=0;exitX=1;exitY=0.5;exitDx=0;exitDy=0;entryX=0;entryY=0.5;entryDx=0;entryDy=0;" edge="1" parent="1" source="yFBd9E0SfqnOR1oz_ZRW-16" target="yFBd9E0SfqnOR1oz_ZRW-21">
          <mxGeometry width="50" height="50" relative="1" as="geometry">
            <mxPoint x="840" y="310" as="sourcePoint" />
            <mxPoint x="890" y="260" as="targetPoint" />
          </mxGeometry>
        </mxCell>
        <mxCell id="yFBd9E0SfqnOR1oz_ZRW-24" value="" style="endArrow=classic;html=1;rounded=0;exitX=1;exitY=0.5;exitDx=0;exitDy=0;entryX=0;entryY=0.5;entryDx=0;entryDy=0;" edge="1" parent="1" source="yFBd9E0SfqnOR1oz_ZRW-1" target="yFBd9E0SfqnOR1oz_ZRW-17">
          <mxGeometry width="50" height="50" relative="1" as="geometry">
            <mxPoint x="870" y="560" as="sourcePoint" />
            <mxPoint x="920" y="510" as="targetPoint" />
          </mxGeometry>
        </mxCell>
        <mxCell id="yFBd9E0SfqnOR1oz_ZRW-25" value="" style="endArrow=classic;html=1;rounded=0;exitX=0.5;exitY=1;exitDx=0;exitDy=0;entryX=0.5;entryY=0;entryDx=0;entryDy=0;" edge="1" parent="1" source="yFBd9E0SfqnOR1oz_ZRW-17" target="yFBd9E0SfqnOR1oz_ZRW-19">
          <mxGeometry width="50" height="50" relative="1" as="geometry">
            <mxPoint x="1180" y="320" as="sourcePoint" />
            <mxPoint x="1230" y="270" as="targetPoint" />
          </mxGeometry>
        </mxCell>
        <mxCell id="yFBd9E0SfqnOR1oz_ZRW-26" value="" style="endArrow=classic;html=1;rounded=0;exitX=1;exitY=0.5;exitDx=0;exitDy=0;entryX=0;entryY=0.5;entryDx=0;entryDy=0;" edge="1" parent="1" source="yFBd9E0SfqnOR1oz_ZRW-17" target="yFBd9E0SfqnOR1oz_ZRW-20">
          <mxGeometry width="50" height="50" relative="1" as="geometry">
            <mxPoint x="1200" y="500" as="sourcePoint" />
            <mxPoint x="1250" y="450" as="targetPoint" />
          </mxGeometry>
        </mxCell>
        <mxCell id="yFBd9E0SfqnOR1oz_ZRW-27" value="" style="endArrow=classic;html=1;rounded=0;entryX=0.5;entryY=0;entryDx=0;entryDy=0;" edge="1" parent="1" source="yFBd9E0SfqnOR1oz_ZRW-21" target="yFBd9E0SfqnOR1oz_ZRW-17">
          <mxGeometry width="50" height="50" relative="1" as="geometry">
            <mxPoint x="1030" y="400" as="sourcePoint" />
            <mxPoint x="1080" y="350" as="targetPoint" />
          </mxGeometry>
        </mxCell>
        <mxCell id="yFBd9E0SfqnOR1oz_ZRW-28" value="" style="endArrow=classic;html=1;rounded=0;exitX=0.5;exitY=1;exitDx=0;exitDy=0;" edge="1" parent="1" source="yFBd9E0SfqnOR1oz_ZRW-19" target="yFBd9E0SfqnOR1oz_ZRW-18">
          <mxGeometry width="50" height="50" relative="1" as="geometry">
            <mxPoint x="1300" y="660" as="sourcePoint" />
            <mxPoint x="1350" y="610" as="targetPoint" />
          </mxGeometry>
        </mxCell>
        <mxCell id="yFBd9E0SfqnOR1oz_ZRW-29" value="" style="curved=1;endArrow=classic;html=1;rounded=0;exitX=1;exitY=0.5;exitDx=0;exitDy=0;entryX=0;entryY=0.5;entryDx=0;entryDy=0;startArrow=blockThin;startFill=1;" edge="1" parent="1" source="yFBd9E0SfqnOR1oz_ZRW-9" target="yFBd9E0SfqnOR1oz_ZRW-18">
          <mxGeometry width="50" height="50" relative="1" as="geometry">
            <mxPoint x="870" y="560" as="sourcePoint" />
            <mxPoint x="920" y="510" as="targetPoint" />
            <Array as="points">
              <mxPoint x="920" y="580" />
              <mxPoint x="1030" y="650" />
            </Array>
          </mxGeometry>
        </mxCell>
      </root>
    </mxGraphModel>
  </diagram>
  <diagram id="hZscyl_oq-KLS9YHjovp" name="4.2">
    <mxGraphModel dx="1678" dy="836" grid="1" gridSize="10" guides="1" tooltips="1" connect="1" arrows="1" fold="1" page="1" pageScale="1" pageWidth="1800" pageHeight="1500" math="0" shadow="0">
      <root>
        <mxCell id="0" />
        <mxCell id="1" parent="0" />
        <mxCell id="ACBR2jv_XBFx176aAoFl-1" value="" style="rounded=1;whiteSpace=wrap;html=1;fillColor=#5959FF;strokeColor=#6c8ebf;gradientColor=none;" vertex="1" parent="1">
          <mxGeometry x="699" y="586" width="240" height="90" as="geometry" />
        </mxCell>
        <mxCell id="ACBR2jv_XBFx176aAoFl-2" value="" style="rounded=1;whiteSpace=wrap;html=1;fillColor=#dae8fc;strokeColor=#6c8ebf;" vertex="1" parent="1">
          <mxGeometry x="440" y="606" width="120" height="50" as="geometry" />
        </mxCell>
        <mxCell id="ACBR2jv_XBFx176aAoFl-3" value="" style="rounded=1;whiteSpace=wrap;html=1;fillColor=#f5f5f5;fontColor=#333333;strokeColor=#666666;" vertex="1" parent="1">
          <mxGeometry x="540" y="710" width="120" height="40" as="geometry" />
        </mxCell>
        <mxCell id="ACBR2jv_XBFx176aAoFl-4" value="" style="endArrow=classic;html=1;rounded=0;exitX=0;exitY=0.5;exitDx=0;exitDy=0;entryX=1;entryY=0.5;entryDx=0;entryDy=0;" edge="1" parent="1" source="ACBR2jv_XBFx176aAoFl-1" target="ACBR2jv_XBFx176aAoFl-2">
          <mxGeometry width="50" height="50" relative="1" as="geometry">
            <mxPoint x="960" y="750" as="sourcePoint" />
            <mxPoint x="1010" y="700" as="targetPoint" />
          </mxGeometry>
        </mxCell>
        <mxCell id="ACBR2jv_XBFx176aAoFl-5" value="" style="endArrow=classic;html=1;rounded=0;exitX=0.75;exitY=1;exitDx=0;exitDy=0;entryX=0.5;entryY=0;entryDx=0;entryDy=0;" edge="1" parent="1" source="ACBR2jv_XBFx176aAoFl-2" target="ACBR2jv_XBFx176aAoFl-3">
          <mxGeometry width="50" height="50" relative="1" as="geometry">
            <mxPoint x="960" y="750" as="sourcePoint" />
            <mxPoint x="1010" y="700" as="targetPoint" />
          </mxGeometry>
        </mxCell>
        <UserObject label="https://www.morgan.edu/academic-affairs/resources/instructional-technology/teaching-with-technology/concept-maps" link="https://www.morgan.edu/academic-affairs/resources/instructional-technology/teaching-with-technology/concept-maps" id="ACBR2jv_XBFx176aAoFl-6">
          <mxCell style="text;whiteSpace=wrap;" vertex="1" parent="1">
            <mxGeometry x="300" y="340" width="350" height="50" as="geometry" />
          </mxCell>
        </UserObject>
        <mxCell id="ACBR2jv_XBFx176aAoFl-7" value="" style="rounded=1;whiteSpace=wrap;html=1;fillColor=#f5f5f5;fontColor=#333333;strokeColor=#666666;" vertex="1" parent="1">
          <mxGeometry x="340" y="710" width="120" height="40" as="geometry" />
        </mxCell>
        <mxCell id="ACBR2jv_XBFx176aAoFl-8" value="" style="endArrow=classic;html=1;rounded=0;exitX=0.25;exitY=1;exitDx=0;exitDy=0;entryX=0.5;entryY=0;entryDx=0;entryDy=0;" edge="1" parent="1" source="ACBR2jv_XBFx176aAoFl-2" target="ACBR2jv_XBFx176aAoFl-7">
          <mxGeometry width="50" height="50" relative="1" as="geometry">
            <mxPoint x="810" y="455" as="sourcePoint" />
            <mxPoint x="990" y="640" as="targetPoint" />
          </mxGeometry>
        </mxCell>
        <mxCell id="ACBR2jv_XBFx176aAoFl-9" value="" style="rounded=1;whiteSpace=wrap;html=1;fillColor=#dae8fc;strokeColor=#6c8ebf;" vertex="1" parent="1">
          <mxGeometry x="759" y="770" width="120" height="50" as="geometry" />
        </mxCell>
        <mxCell id="ACBR2jv_XBFx176aAoFl-10" value="" style="endArrow=classic;html=1;rounded=0;exitX=0.5;exitY=1;exitDx=0;exitDy=0;entryX=0.5;entryY=0;entryDx=0;entryDy=0;" edge="1" parent="1" source="ACBR2jv_XBFx176aAoFl-1" target="ACBR2jv_XBFx176aAoFl-9">
          <mxGeometry width="50" height="50" relative="1" as="geometry">
            <mxPoint x="840" y="650" as="sourcePoint" />
            <mxPoint x="710" y="650" as="targetPoint" />
          </mxGeometry>
        </mxCell>
        <mxCell id="ACBR2jv_XBFx176aAoFl-11" value="" style="rounded=1;whiteSpace=wrap;html=1;fillColor=#f5f5f5;fontColor=#333333;strokeColor=#666666;" vertex="1" parent="1">
          <mxGeometry x="901" y="870" width="120" height="40" as="geometry" />
        </mxCell>
        <mxCell id="ACBR2jv_XBFx176aAoFl-12" value="" style="endArrow=classic;html=1;rounded=0;entryX=0.5;entryY=0;entryDx=0;entryDy=0;" edge="1" parent="1" source="ACBR2jv_XBFx176aAoFl-9" target="ACBR2jv_XBFx176aAoFl-11">
          <mxGeometry width="50" height="50" relative="1" as="geometry">
            <mxPoint x="849" y="820" as="sourcePoint" />
            <mxPoint x="1329" y="864" as="targetPoint" />
          </mxGeometry>
        </mxCell>
        <mxCell id="ACBR2jv_XBFx176aAoFl-13" value="" style="rounded=1;whiteSpace=wrap;html=1;fillColor=#f5f5f5;fontColor=#333333;strokeColor=#666666;" vertex="1" parent="1">
          <mxGeometry x="621" y="871" width="120" height="40" as="geometry" />
        </mxCell>
        <mxCell id="ACBR2jv_XBFx176aAoFl-14" value="" style="endArrow=classic;html=1;rounded=0;entryX=0.5;entryY=0;entryDx=0;entryDy=0;" edge="1" parent="1" source="ACBR2jv_XBFx176aAoFl-9" target="ACBR2jv_XBFx176aAoFl-13">
          <mxGeometry width="50" height="50" relative="1" as="geometry">
            <mxPoint x="789" y="820" as="sourcePoint" />
            <mxPoint x="1309" y="804" as="targetPoint" />
          </mxGeometry>
        </mxCell>
        <mxCell id="ACBR2jv_XBFx176aAoFl-15" value="" style="endArrow=classic;startArrow=classic;html=1;rounded=0;exitX=1;exitY=0.5;exitDx=0;exitDy=0;entryX=0;entryY=0.5;entryDx=0;entryDy=0;" edge="1" parent="1" source="ACBR2jv_XBFx176aAoFl-13" target="ACBR2jv_XBFx176aAoFl-11">
          <mxGeometry width="50" height="50" relative="1" as="geometry">
            <mxPoint x="800" y="980" as="sourcePoint" />
            <mxPoint x="850" y="930" as="targetPoint" />
          </mxGeometry>
        </mxCell>
        <mxCell id="ACBR2jv_XBFx176aAoFl-16" value="" style="rounded=1;whiteSpace=wrap;html=1;fillColor=#dae8fc;strokeColor=#6c8ebf;" vertex="1" parent="1">
          <mxGeometry x="741" y="450" width="120" height="50" as="geometry" />
        </mxCell>
        <mxCell id="ACBR2jv_XBFx176aAoFl-17" value="" style="rounded=1;whiteSpace=wrap;html=1;fillColor=#dae8fc;strokeColor=#6c8ebf;" vertex="1" parent="1">
          <mxGeometry x="1100" y="606" width="120" height="50" as="geometry" />
        </mxCell>
        <mxCell id="ACBR2jv_XBFx176aAoFl-18" value="" style="rounded=1;whiteSpace=wrap;html=1;fillColor=#f5f5f5;fontColor=#333333;strokeColor=#666666;" vertex="1" parent="1">
          <mxGeometry x="1170" y="831" width="80" height="40" as="geometry" />
        </mxCell>
        <mxCell id="ACBR2jv_XBFx176aAoFl-19" value="" style="rounded=1;whiteSpace=wrap;html=1;fillColor=#f5f5f5;fontColor=#333333;strokeColor=#666666;" vertex="1" parent="1">
          <mxGeometry x="1130" y="721" width="120" height="40" as="geometry" />
        </mxCell>
        <mxCell id="ACBR2jv_XBFx176aAoFl-20" value="" style="rounded=1;whiteSpace=wrap;html=1;fillColor=#f5f5f5;fontColor=#333333;strokeColor=#666666;" vertex="1" parent="1">
          <mxGeometry x="1380" y="560" width="80" height="40" as="geometry" />
        </mxCell>
        <mxCell id="ACBR2jv_XBFx176aAoFl-21" value="" style="rounded=1;whiteSpace=wrap;html=1;fillColor=#f5f5f5;fontColor=#333333;strokeColor=#666666;" vertex="1" parent="1">
          <mxGeometry x="1050" y="420" width="150" height="40" as="geometry" />
        </mxCell>
        <mxCell id="ACBR2jv_XBFx176aAoFl-22" value="" style="endArrow=classic;html=1;rounded=0;exitX=0.5;exitY=0;exitDx=0;exitDy=0;entryX=0.5;entryY=1;entryDx=0;entryDy=0;" edge="1" parent="1" source="ACBR2jv_XBFx176aAoFl-1" target="ACBR2jv_XBFx176aAoFl-16">
          <mxGeometry width="50" height="50" relative="1" as="geometry">
            <mxPoint x="880" y="560" as="sourcePoint" />
            <mxPoint x="930" y="510" as="targetPoint" />
          </mxGeometry>
        </mxCell>
        <mxCell id="ACBR2jv_XBFx176aAoFl-23" value="" style="endArrow=classic;html=1;rounded=0;exitX=1;exitY=0.5;exitDx=0;exitDy=0;entryX=0;entryY=0.5;entryDx=0;entryDy=0;" edge="1" parent="1" source="ACBR2jv_XBFx176aAoFl-16" target="ACBR2jv_XBFx176aAoFl-21">
          <mxGeometry width="50" height="50" relative="1" as="geometry">
            <mxPoint x="910" y="470" as="sourcePoint" />
            <mxPoint x="960" y="420" as="targetPoint" />
          </mxGeometry>
        </mxCell>
        <mxCell id="ACBR2jv_XBFx176aAoFl-24" value="" style="endArrow=classic;html=1;rounded=0;exitX=1;exitY=0.5;exitDx=0;exitDy=0;entryX=0;entryY=0.5;entryDx=0;entryDy=0;" edge="1" parent="1" source="ACBR2jv_XBFx176aAoFl-1" target="ACBR2jv_XBFx176aAoFl-17">
          <mxGeometry width="50" height="50" relative="1" as="geometry">
            <mxPoint x="940" y="720" as="sourcePoint" />
            <mxPoint x="990" y="670" as="targetPoint" />
          </mxGeometry>
        </mxCell>
        <mxCell id="ACBR2jv_XBFx176aAoFl-25" value="" style="endArrow=classic;html=1;rounded=0;exitX=0.5;exitY=1;exitDx=0;exitDy=0;entryX=0.5;entryY=0;entryDx=0;entryDy=0;" edge="1" parent="1" source="ACBR2jv_XBFx176aAoFl-17" target="ACBR2jv_XBFx176aAoFl-19">
          <mxGeometry width="50" height="50" relative="1" as="geometry">
            <mxPoint x="1250" y="480" as="sourcePoint" />
            <mxPoint x="1300" y="430" as="targetPoint" />
          </mxGeometry>
        </mxCell>
        <mxCell id="ACBR2jv_XBFx176aAoFl-26" value="" style="endArrow=classic;html=1;rounded=0;exitX=1;exitY=0.5;exitDx=0;exitDy=0;entryX=0;entryY=0.5;entryDx=0;entryDy=0;" edge="1" parent="1" source="ACBR2jv_XBFx176aAoFl-17" target="ACBR2jv_XBFx176aAoFl-20">
          <mxGeometry width="50" height="50" relative="1" as="geometry">
            <mxPoint x="1270" y="660" as="sourcePoint" />
            <mxPoint x="1320" y="610" as="targetPoint" />
          </mxGeometry>
        </mxCell>
        <mxCell id="ACBR2jv_XBFx176aAoFl-27" value="" style="endArrow=classic;html=1;rounded=0;entryX=0.5;entryY=0;entryDx=0;entryDy=0;" edge="1" parent="1" source="ACBR2jv_XBFx176aAoFl-21" target="ACBR2jv_XBFx176aAoFl-17">
          <mxGeometry width="50" height="50" relative="1" as="geometry">
            <mxPoint x="1100" y="560" as="sourcePoint" />
            <mxPoint x="1150" y="510" as="targetPoint" />
          </mxGeometry>
        </mxCell>
        <mxCell id="ACBR2jv_XBFx176aAoFl-28" value="" style="endArrow=classic;html=1;rounded=0;exitX=0.5;exitY=1;exitDx=0;exitDy=0;" edge="1" parent="1" source="ACBR2jv_XBFx176aAoFl-19" target="ACBR2jv_XBFx176aAoFl-18">
          <mxGeometry width="50" height="50" relative="1" as="geometry">
            <mxPoint x="1370" y="820" as="sourcePoint" />
            <mxPoint x="1420" y="770" as="targetPoint" />
          </mxGeometry>
        </mxCell>
        <mxCell id="ACBR2jv_XBFx176aAoFl-29" value="" style="curved=1;endArrow=classic;html=1;rounded=0;exitX=1;exitY=0.5;exitDx=0;exitDy=0;entryX=0;entryY=0.5;entryDx=0;entryDy=0;startArrow=blockThin;startFill=1;" edge="1" parent="1" source="ACBR2jv_XBFx176aAoFl-9" target="ACBR2jv_XBFx176aAoFl-18">
          <mxGeometry width="50" height="50" relative="1" as="geometry">
            <mxPoint x="940" y="720" as="sourcePoint" />
            <mxPoint x="990" y="670" as="targetPoint" />
            <Array as="points">
              <mxPoint x="990" y="740" />
              <mxPoint x="1100" y="810" />
            </Array>
          </mxGeometry>
        </mxCell>
      </root>
    </mxGraphModel>
  </diagram>
</mxfile>
